<svg width="66" height="71" viewBox="0 0 66 71" fill="none" xmlns="http://www.w3.org/2000/svg">
<path d="M8.80167 61.0803C8.46728 61.0803 8.15096 60.8577 7.94349 60.4755C7.73601 60.0941 7.66085 59.5957 7.73846 59.1228C8.21149 56.2436 8.44092 53.2905 8.42189 50.3305C6.44189 50.2716 4.55611 49.089 3.16883 47.0365C1.78143 44.9834 1.00287 42.223 1 39.346V11.9896C1.00244 9.07624 1.80057 6.28288 3.21919 4.22244C4.63784 2.16272 6.56061 1.00363 8.56698 1H39.1843C41.1907 1.00284 43.114 2.16205 44.5326 4.22244C45.9513 6.28288 46.7488 9.07624 46.7513 11.9896V39.346C46.7489 42.2601 45.9512 45.0534 44.5326 47.1139C43.114 49.1743 41.1907 50.3334 39.1843 50.3363H23.1083C20.2379 55.3369 15.5072 58.938 9.04061 61.0422C8.96251 61.067 8.88223 61.0803 8.80167 61.0803ZM8.56687 4.17672C7.14048 4.17884 5.77319 5.00342 4.76457 6.46822C3.75604 7.93301 3.18884 9.91899 3.18684 11.99V39.3464C3.18879 41.4181 3.75604 43.4039 4.76457 44.8688C5.77311 46.3336 7.14048 47.1574 8.56687 47.1603H9.47435C10.0562 47.1589 10.5366 47.8197 10.5678 48.6634C10.6738 51.5711 10.5556 54.4872 10.2154 57.3566C15.5695 55.2863 19.4333 52.0681 21.7159 47.778C21.9229 47.3888 22.2421 47.1605 22.5809 47.1605H39.1792C40.6056 47.1584 41.9729 46.3345 42.9815 44.8697C43.9901 43.4049 44.5573 41.4182 44.5588 39.3465V11.9901C44.5573 9.91843 43.9901 7.93258 42.9815 6.46765C41.973 5.00285 40.6056 4.17906 39.1792 4.17688L8.56687 4.17672Z" fill="white" stroke="white"/>
<path d="M37.3687 12.9625H10.3767C9.77283 12.9625 9.2832 12.2513 9.2832 11.3743C9.2832 10.4973 9.77283 9.78613 10.3767 9.78613H37.3687C37.973 9.78613 38.4622 10.4973 38.4622 11.3743C38.4622 12.2513 37.973 12.9625 37.3687 12.9625Z" fill="white" stroke="white"/>
<path d="M37.3687 22.4925H10.3767C9.77283 22.4925 9.2832 21.7814 9.2832 20.9043C9.2832 20.0273 9.77283 19.3162 10.3767 19.3162H37.3687C37.973 19.3162 38.4622 20.0273 38.4622 20.9043C38.4622 21.7814 37.973 22.4925 37.3687 22.4925Z" fill="white" stroke="white"/>
<path d="M37.3687 32.0201H10.3767C9.77283 32.0201 9.2832 31.3089 9.2832 30.4319C9.2832 29.5542 9.77283 28.8438 10.3767 28.8438H37.3687C37.973 28.8438 38.4622 29.5542 38.4622 30.4319C38.4622 31.3089 37.973 32.0201 37.3687 32.0201Z" fill="white" stroke="white"/>
<path d="M37.3687 41.5455H10.3767C9.77283 41.5455 9.2832 40.8343 9.2832 39.9573C9.2832 39.0803 9.77283 38.3691 10.3767 38.3691H37.3687C37.973 38.3691 38.4622 39.0803 38.4622 39.9573C38.4622 40.8343 37.973 41.5455 37.3687 41.5455Z" fill="white" stroke="white"/>
<path d="M56.8914 70.0001C56.8109 70.0008 56.7303 69.988 56.6522 69.9625C50.1856 67.8581 45.4578 64.2571 42.5858 59.2566H26.5135C25.0168 59.2601 23.5529 58.6178 22.3081 57.4103C21.0633 56.2029 20.0933 54.485 19.5221 52.475C19.2908 51.6646 19.5558 50.7359 20.1133 50.3997C20.6713 50.0636 21.3113 50.4479 21.5427 51.2583C21.9489 52.687 22.6381 53.9086 23.5232 54.7672C24.4083 55.6257 25.4495 56.0831 26.5137 56.0802H43.1083C43.4471 56.0802 43.7668 56.3085 43.9738 56.6978C46.2565 60.988 50.1246 64.2061 55.4743 66.2743C55.135 63.4049 55.0174 60.4896 55.1243 57.5826C55.1555 56.7396 55.6359 56.0788 56.2178 56.0802H57.1297C58.555 56.076 59.922 55.2507 60.9295 53.7858C61.937 52.3203 62.5038 50.3351 62.5052 48.2641V20.9095C62.5032 18.8378 61.936 16.852 60.9275 15.387C59.9189 13.9222 58.5516 13.0984 57.1252 13.0955H45.6437C45.0398 13.0955 44.5502 12.3844 44.5502 11.5074C44.5502 10.6303 45.0398 9.91919 45.6437 9.91919H57.1252C59.1315 9.92273 61.0548 11.0812 62.4734 13.1416C63.8921 15.2021 64.6901 17.9954 64.6921 20.9095V48.2641C64.6902 51.1413 63.9121 53.9027 62.5252 55.9576C61.1378 58.0115 59.2521 59.1956 57.2716 59.2544C57.2526 62.2146 57.482 65.1675 57.9551 68.0467C58.0317 68.5189 57.9555 69.0166 57.7486 69.3973C57.5411 69.7781 57.2257 70 56.8914 70L56.8914 70.0001Z" fill="white" stroke="white"/>
</svg>
