<svg width="56" height="74" viewBox="0 0 56 74" fill="none" xmlns="http://www.w3.org/2000/svg">
<path fill-rule="evenodd" clip-rule="evenodd" d="M22.0005 0C9.85878 0 0.000488281 12.9052 0.000488281 28.8003C0.000488281 44.6954 9.85855 57.6006 22.0005 57.6006C34.1424 57.6006 44.0005 44.6954 44.0005 28.8003C44.0005 12.9052 34.1424 0 22.0005 0ZM22.0005 5.23642C31.9344 5.23642 40.0005 15.7957 40.0005 28.8003C40.0005 41.8049 31.9344 52.3642 22.0005 52.3642C12.0665 52.3642 4.00049 41.8049 4.00049 28.8003C4.00049 15.7957 12.0665 5.23642 22.0005 5.23642Z" fill="white"/>
<path fill-rule="evenodd" clip-rule="evenodd" d="M10.7639 26.1824L14.2112 17.1572C14.5429 16.2882 15.2152 15.7318 15.9571 15.7096C16.6982 15.6886 17.388 16.2069 17.7482 17.0567L26.067 36.6574L30.2848 27.4532C30.646 26.6654 31.2969 26.1821 32 26.1821H42C43.104 26.1821 44 27.355 44 28.8003C44 30.2456 43.104 31.4185 42 31.4185H33.1321L27.7152 43.2385C27.3469 44.0409 26.6808 44.5254 25.967 44.5096C25.2518 44.4938 24.5991 43.9807 24.2518 43.1625L16.0928 23.9389L13.7888 29.9712C13.45 30.8584 12.758 31.4188 12 31.4188H2C0.895977 31.4188 0 30.2459 0 28.8006C0 27.3553 0.895977 26.1824 2 26.1824H10.7639Z" fill="white"/>
<path fill-rule="evenodd" clip-rule="evenodd" d="M40.5859 56.833L52.5859 72.5423C53.3667 73.5644 54.6333 73.5644 55.4145 72.5423C56.1953 71.5201 56.1953 69.8615 55.4145 68.8394L43.4145 53.1301C42.6333 52.108 41.3667 52.108 40.5859 53.1301C39.8047 54.1523 39.8047 55.8109 40.5859 56.833Z" fill="white"/>
</svg>
