<svg width="67" height="81" viewBox="0 0 67 81" fill="none" xmlns="http://www.w3.org/2000/svg">
<path d="M39.6507 57.0197L41.1301 55.2737C40.9821 55.7761 40.9401 56.3196 41.0392 56.8445C40.5721 56.781 40.0897 56.8394 39.6507 57.0197ZM45.0681 61.9565C45.0792 61.7211 45.0696 61.4648 45.031 61.2045C45.4164 61.2731 45.8155 61.2576 46.1947 61.1583C46.0598 61.5092 45.9982 61.875 45.9982 62.2218C45.9982 62.4413 46.0229 62.6684 46.0752 62.8945C45.6762 62.8314 45.2643 62.8577 44.8762 62.9734C45.0012 62.6149 45.0539 62.2582 45.0681 61.9565ZM49.1749 59.3662C48.7844 59.3087 48.3824 59.3367 48.0032 59.45C48.1313 59.0764 48.1808 58.6968 48.1808 58.3619C48.1808 58.1578 48.1624 57.9372 48.1191 57.7115C48.5094 57.7449 48.9064 57.694 49.2763 57.559C49.0595 58.1432 49.0436 58.7756 49.1749 59.3662ZM43.8911 53.3052C43.4666 53.2689 43.0341 53.3322 42.6371 53.4952L43.8885 52.0184C43.8471 52.2393 43.8295 52.455 43.8295 52.6548C43.8295 52.8589 43.8478 53.0795 43.8911 53.3052ZM48.5004 50.6781C47.797 49.8481 46.662 49.5872 45.6874 49.8954L47.2136 48.0942L62.4553 66.082L61.1537 67.6182C61.2322 67.3186 61.2639 67.0216 61.2639 66.7533C61.2639 66.1405 61.0985 65.3786 60.5884 64.7766L58.7395 62.5946C58.0954 61.8345 57.0895 61.5516 56.176 61.746C56.2549 61.4458 56.2868 61.1482 56.2868 60.8793C56.2868 60.2666 56.1213 59.5046 55.6112 58.9027L53.7623 56.7207C53.0295 55.8559 51.8283 55.6089 50.8279 55.9796C50.9704 55.5885 51.0248 55.1881 51.0248 54.8368C51.0248 54.2241 50.8593 53.4621 50.3493 52.8601L48.5004 50.6781ZM53.733 76.3758L52.0491 78.3631L36.8074 60.3753L38.1095 58.8386C38.0308 59.1385 37.999 59.4357 37.999 59.7043C37.999 60.3078 38.1595 61.056 38.6517 61.6536L40.3441 63.817L40.3621 63.8401L40.3811 63.8625C41.0748 64.6811 42.1883 64.9461 43.1538 64.6576C43.0256 65.0312 42.9762 65.4107 42.9762 65.7457C42.9762 66.3585 43.1417 67.1204 43.6518 67.7224L45.5007 69.9044C46.1447 70.6645 47.1508 70.9474 48.0643 70.7529C47.9853 71.0533 47.9534 71.3511 47.9534 71.6202C47.9534 72.233 48.1189 72.9949 48.6289 73.5969L50.4778 75.7789C51.2909 76.7384 52.6808 76.9374 53.733 76.3758ZM51.1519 68.7867C50.7842 68.7143 50.4026 68.7188 50.0366 68.8002C50.1788 68.2997 50.2158 67.7601 50.1132 67.2395C50.4693 67.308 50.8381 67.3045 51.1929 67.229C51.114 67.5292 51.0822 67.8268 51.0822 68.0957C51.0822 68.312 51.1028 68.5468 51.1519 68.7867ZM54.1223 65.2359C53.8124 65.1938 53.4958 65.2053 53.1896 65.2705C53.2685 64.9703 53.3003 64.6727 53.3003 64.4038C53.3003 64.195 53.2811 63.9689 53.2356 63.7377C53.5572 63.7827 53.8862 63.7699 54.2035 63.6993C54.0635 64.1921 54.0255 64.7228 54.1223 65.2359ZM58.2775 70.2777C58.2775 70.0689 58.2583 69.8428 58.2128 69.6116C58.6831 69.6774 59.1693 69.6196 59.6115 69.4382L58.1673 71.1426C58.2458 70.843 58.2775 70.5461 58.2775 70.2777ZM55.1537 73.1249C55.6464 73.2075 56.16 73.1534 56.6251 72.9627L55.1243 74.7339C55.2958 74.2082 55.2928 73.6506 55.1537 73.1249Z" stroke="white" stroke-width="3"/>
<path d="M19.4392 22.5637C19.2451 23.0686 19.2184 23.6084 19.3239 24.1249C18.9334 24.0654 18.5308 24.0915 18.1508 24.2031C18.332 23.6832 18.3569 23.1275 18.2627 22.5987C18.6515 22.6728 19.0552 22.6611 19.4392 22.5637ZM14.4155 16.4955C14.2343 17.0155 14.2094 17.5712 14.3035 18.0999C13.8975 18.0226 13.4753 18.0387 13.0762 18.1484C13.1623 17.8357 13.1969 17.5246 13.1969 17.2446C13.1969 17.0284 13.1762 16.7935 13.1271 16.5537C13.5533 16.6376 13.9979 16.6182 14.4155 16.4955ZM10.1457 20.103C10.5108 20.1541 10.8855 20.1307 11.2418 20.0328C11.1556 20.3455 11.1211 20.6566 11.1211 20.9366C11.1211 21.1974 11.151 21.4853 11.2248 21.7764C10.828 21.715 10.4186 21.742 10.0328 21.8574C10.161 21.4837 10.2104 21.1041 10.2104 20.7691C10.2104 20.5603 10.1912 20.3342 10.1457 20.103ZM8.3128 23.5407C8.1846 23.9144 8.13514 24.294 8.13514 24.629C8.13514 25.2418 8.30061 26.0037 8.8107 26.6057L10.659 28.7876L10.6591 28.7877C11.3529 29.6065 12.4667 29.8715 13.4324 29.5827C13.3042 29.9564 13.2547 30.336 13.2547 30.671C13.2547 31.2837 13.4202 32.0457 13.9303 32.6477L15.7792 34.8297C16.4825 35.6597 17.6175 35.9206 18.5922 35.6124L17.2078 37.2461L1.96608 19.2583L3.07411 17.9507C3.03269 18.1715 3.01509 18.3872 3.01509 18.5871C3.01509 19.1999 3.18056 19.9618 3.69065 20.5638L5.53954 22.7458C6.23334 23.5646 7.34715 23.8296 8.3128 23.5407ZM6.20227 15.7514C5.76175 15.6666 5.30185 15.6921 4.87298 15.8277L6.28841 14.1573C6.13833 14.6672 6.0973 15.2192 6.20227 15.7514ZM9.18403 12.2028C8.71718 12.1394 8.23509 12.1977 7.79629 12.3777L9.27482 10.6328C9.12701 11.135 9.08497 11.6781 9.18403 12.2028ZM13.8012 9.56148C13.0478 8.67234 11.7991 8.43627 10.7827 8.85325L12.3723 6.97728L27.614 24.9651L26.5378 26.2352C26.5564 26.0863 26.5648 25.9414 26.5648 25.8041C26.5648 25.1913 26.3993 24.4293 25.8892 23.8274L24.0403 21.6454C23.3466 20.8267 22.2331 20.5617 21.2676 20.8503C21.3958 20.4766 21.4452 20.0971 21.4452 19.7621C21.4452 19.1493 21.2797 18.3874 20.7696 17.7854L18.9207 15.6034C18.2271 14.7848 17.1136 14.5197 16.148 14.8083C16.2762 14.4347 16.3256 14.0551 16.3256 13.7202C16.3256 13.1074 16.1602 12.3455 15.6501 11.7435L13.8012 9.56148ZM23.3823 28.6407C23.7585 28.7124 24.1487 28.7037 24.5215 28.6148L23.3421 30.0067C23.4564 29.5575 23.4622 29.0894 23.3823 28.6407ZM20.3463 32.0131C20.8287 32.0878 21.3298 32.0318 21.7843 31.8451L20.391 33.4894C20.4325 33.2685 20.4501 33.0528 20.4501 32.853C20.4501 32.5921 20.4201 32.3042 20.3463 32.0131ZM16.2406 26.9785C16.2406 27.2394 16.2706 27.5273 16.3444 27.8183C15.9376 27.7554 15.5175 27.7854 15.1232 27.9082C15.3395 27.3 15.4002 26.6173 15.2383 25.973C15.6313 26.032 16.0364 26.0045 16.4182 25.8903C16.2901 26.264 16.2406 26.6435 16.2406 26.9785Z" stroke="white" stroke-width="3"/>
<path d="M64.4999 8.3504C63.6759 9.18122 62.6291 9.57438 61.4563 9.71298L60.8698 9.7823L60.488 10.2329L55.9374 15.6033L55.1157 16.573L55.9374 17.5427L63.1552 26.061C59.2883 29.6153 54.2564 30.1632 49.9748 27.8418L48.9034 27.2608L48.1154 28.1907L44.2758 32.7222L43.4541 33.6919L44.2758 34.6616L44.9867 35.5005L45.0076 35.5253L45.0296 35.5491C46.1829 36.7966 46.2409 39.1298 44.9867 40.61L28.6321 59.9112C27.6919 61.0207 26.045 61.0956 24.9051 59.8626L23.7548 58.6183L22.6593 59.9112L22.5323 60.0611C21.57 61.1224 20.4291 61.6116 19.3922 61.6259C18.3712 61.6401 17.3091 61.1985 16.4438 60.1136C14.5909 57.7906 14.6279 54.2264 16.4155 52.1167L15.2711 51.147L16.4155 52.1167L16.5579 51.9487L17.3795 50.979L16.5579 50.0093C15.3261 48.5555 15.3255 46.3563 16.5561 44.9018C16.5567 44.9011 16.5573 44.9004 16.5579 44.8998L33.1923 25.4366L33.2152 25.4099L33.2367 25.3822C33.7502 24.721 34.3887 24.4516 34.9851 24.4516C35.5883 24.4516 36.2851 24.7291 36.8804 25.4318L37.5913 26.2707L38.7357 27.6213L39.8802 26.2707L43.7198 21.7393L44.2973 21.0578L43.9732 20.2255C41.9617 15.0578 42.4112 9.03824 45.2472 4.4244L52.0967 12.5081L53.2412 13.8587L54.3856 12.5081L58.9361 7.13766L59.339 6.66217L59.2864 6.04118C59.1698 4.66748 59.5328 3.41252 60.216 2.6062C60.8883 1.81283 61.6585 1.5 62.3425 1.5C63.0265 1.5 63.7968 1.81283 64.469 2.6062C65.8334 4.21644 65.8437 6.7266 64.4999 8.3504Z" stroke="white" stroke-width="3"/>
</svg>
