<svg width="64" height="65" viewBox="0 0 64 65" fill="none" xmlns="http://www.w3.org/2000/svg">
<path d="M5.28399 46.4807H0V64.9999H17.1588V59.6229H5.28372L5.28399 46.4807Z" fill="white"/>
<path d="M58.6124 59.6229H46.2036V64.9999H63.8987V46.4807H58.6122L58.6124 59.6229Z" fill="white"/>
<path d="M46.5479 0V5.37703H58.6121V18.5193H63.8986V0.000135637L46.5479 0Z" fill="white"/>
<path d="M5.28399 5.37703H16.6117V0H0V18.5192H5.28399V5.37703Z" fill="white"/>
<path d="M13.1431 16.5878V49.81C13.1431 50.7096 13.8602 51.4385 14.7442 51.4385H49.6007C50.4847 51.4385 51.2019 50.7096 51.2019 49.81V16.5878C51.2019 15.6887 50.4847 14.9592 49.6007 14.9592H14.7415C13.8586 14.9608 13.1431 15.6897 13.1431 16.5878ZM16.3453 18.2163H48.005V40.9154L40.8212 33.4704L35.2011 39.2869L41.2585 45.5758H36.8398L25.1513 33.4651L16.3451 42.5987L16.3453 18.2163Z" fill="white"/>
<path d="M37.6897 28.2608C37.6897 31.068 35.4524 33.3435 32.6925 33.3435C29.9321 33.3435 27.6948 31.0679 27.6948 28.2608C27.6948 25.4531 29.9321 23.1775 32.6925 23.1775C35.4525 23.1775 37.6897 25.4531 37.6897 28.2608Z" fill="white"/>
</svg>
