<svg width="70" height="75" viewBox="0 0 70 75" fill="none" xmlns="http://www.w3.org/2000/svg">
<path d="M66.3242 71.7188C65.9574 69.6446 65.2042 67.3654 63.7054 65.586C61.9099 63.4547 58.9835 61.9972 54.2477 62.399V62.3997C53.8033 62.4377 53.4005 62.1743 53.2136 61.7697C52.5728 60.644 44.5932 47.3334 31.1566 58.3675L31.1579 58.3696C30.8479 58.6242 30.4495 58.6663 30.113 58.519C29.2177 58.2019 18.4551 54.6477 13.3816 65.4292L12.4371 64.9166L13.3835 65.4319C13.2042 65.8128 12.8531 66.0389 12.4832 66.0565C11.7874 66.1455 5.66646 67.0546 3.56598 71.7182H66.3234L66.3242 71.7188ZM65.2717 64.0624C67.4361 66.6321 68.294 69.9515 68.6059 72.6673C68.616 72.7297 68.621 72.7935 68.621 72.8594C68.621 73.4895 68.1463 74 67.5604 74H2.0796C1.98806 74.0014 1.89525 73.9905 1.80245 73.9654C1.23424 73.812 0.889526 73.1921 1.03221 72.581L1.03347 72.5817C2.5847 65.9492 9.68041 64.2349 11.7544 63.8717C17.2357 53.0108 27.8146 55.4502 30.3138 56.2071C44.1744 45.2259 52.8977 57.195 54.7159 60.0832C59.8576 59.8014 63.1589 61.5545 65.2715 64.0625L65.2717 64.0624Z" fill="white" stroke="white" stroke-linejoin="round"/>
<path d="M42.8614 26.4977C62.1061 28.2765 64.2056 8.3748 64.4286 3.30483C59.7137 3.54449 41.2063 5.80331 42.8614 26.4977ZM65.5115 2.14031L66.5677 2.13556C66.5684 2.22043 67.0312 31.7038 41.8569 28.6795C41.3398 28.6612 40.8991 28.2382 40.8391 27.6686L41.8929 27.5396L40.8404 27.6645C38.053 1.37257 63.7071 0.998885 65.4252 1.0041C65.4517 1.00206 65.4782 1.0007 65.5047 1.00002C66.0906 0.995951 66.5686 1.50311 66.573 2.13249L65.5115 2.14031Z" fill="white" stroke="white" stroke-linejoin="round"/>
<path d="M33.775 34.0788C8.60027 37.1021 9.06252 7.61998 9.06252 7.53482L10.1188 7.53957L9.05811 7.53142C9.06189 6.90137 9.54046 6.3942 10.1264 6.39896C10.1529 6.39896 10.1794 6.40032 10.2059 6.40303C11.9238 6.39964 37.5787 6.77305 34.7907 33.0634L33.7382 32.9385L34.7919 33.0675C34.7313 33.6371 34.2913 34.0601 33.7742 34.0784L33.775 34.0788ZM11.2024 8.7028C11.4259 13.7717 13.5258 33.6755 32.7697 31.8957C34.4238 11.2004 15.9154 8.94266 11.2024 8.7028Z" fill="white" stroke="white" stroke-linejoin="round"/>
<path d="M34.6881 32.4397C34.4318 31.8761 33.7991 31.6426 33.2751 31.9182C32.7511 32.1939 32.5339 32.8742 32.7903 33.4377C32.8035 33.4662 37.3694 43.3821 37.1876 53.2327C37.1762 53.86 37.6396 54.3787 38.2236 54.391C38.807 54.4032 39.2894 53.9048 39.3007 53.2768C39.4926 42.8735 34.7014 32.4703 34.6881 32.439L34.6881 32.4397Z" fill="white" stroke="white" stroke-linejoin="round"/>
<path d="M42.6801 28.2982C43.069 27.8304 43.0317 27.1127 42.5974 26.6938C42.1624 26.2756 41.495 26.3157 41.1055 26.7828C41.0929 26.7984 36.5989 32.0954 36.0339 43.1167C36.0017 43.744 36.4487 44.2811 37.0327 44.315C37.616 44.3497 38.1154 43.869 38.147 43.2409C38.6704 33.019 42.6681 28.3105 42.6794 28.297L42.6801 28.2982Z" fill="white" stroke="white" stroke-linejoin="round"/>
<path d="M66.2621 2.94767C66.6763 2.50228 66.6763 1.77988 66.2621 1.33452C65.848 0.889153 65.1762 0.889136 64.7621 1.33452L41.1422 26.7348C40.728 27.1802 40.728 27.9026 41.1422 28.3479C41.5563 28.7933 42.2281 28.7933 42.6422 28.3479L66.2621 2.94767Z" fill="white" stroke="white" stroke-linejoin="round"/>
<path d="M10.8291 6.69258C10.3941 6.27163 9.7249 6.30966 9.33346 6.77745C8.94202 7.24523 8.97738 7.9649 9.41238 8.38585C9.4692 8.44084 29.1759 27.4647 32.8545 33.5584C33.1727 34.0853 33.8274 34.2347 34.3173 33.8925C34.8073 33.5503 34.9461 32.8462 34.6279 32.3194C30.79 25.9598 10.8884 6.74877 10.8303 6.69141L10.8291 6.69258Z" fill="white" stroke="white" stroke-linejoin="round"/>
</svg>
