<svg width="45" height="78" viewBox="0 0 45 78" fill="none" xmlns="http://www.w3.org/2000/svg">
<path d="M22.7369 4C12.2411 17.917 2.52637 34.4203 2.52637 49.2126C2.52637 64.0037 11.5813 76 22.7369 76C33.8925 76 42.9474 64.0051 42.9474 49.2126C42.9474 34.4215 33.2328 17.9184 22.7369 4ZM9.89509 46.4762C10.3797 46.464 10.8461 46.694 11.1733 47.1074C11.5011 47.5214 11.6585 48.0779 11.6056 48.6351C11.2385 53.3518 13.7297 59.7125 16.5005 62.0437C16.8659 62.3478 17.1096 62.8072 17.179 63.321C17.2489 63.8347 17.1372 64.3587 16.8706 64.7774C16.6033 65.1955 16.2021 65.4731 15.7568 65.5477C15.3122 65.6224 14.8593 65.488 14.5004 65.1751C10.3674 61.6982 7.76865 54.6264 8.26324 48.27C8.3302 47.2777 9.03388 46.504 9.89509 46.4762Z" stroke="white" stroke-width="4"/>
</svg>
